<?xml version="1.0" standalone="no"?>
<!DOCTYPE svg PUBLIC "-//W3C//DTD SVG 20010904//EN"
 "http://www.w3.org/TR/2001/REC-SVG-20010904/DTD/svg10.dtd">
<svg version="1.0" xmlns="http://www.w3.org/2000/svg"
 width="760.000000pt" height="760.000000pt" viewBox="0 0 760.000000 760.000000"
 preserveAspectRatio="xMidYMid meet">
<metadata>
Created by potrace 1.11, written by Peter Selinger 2001-2013
</metadata>
<g transform="translate(0.000000,760.000000) scale(0.100000,-0.100000)"
fill="#000000" stroke="none">
<path d="M5810 7523 c-285 -30 -716 -190 -1020 -378 -233 -144 -338 -231 -600
-495 -193 -194 -223 -220 -290 -253 -89 -44 -171 -56 -250 -37 -41 10 -83 36
-189 114 -445 332 -741 484 -1071 553 -119 25 -382 25 -500 -1 -401 -87 -665
-325 -755 -681 -43 -168 -50 -260 -49 -605 1 -436 30 -722 135 -1325 98 -563
190 -1125 204 -1240 3 -27 8 -63 10 -80 16 -106 36 -396 41 -605 14 -549 -57
-1025 -213 -1420 -52 -132 -137 -306 -194 -396 -35 -55 -38 -65 -27 -83 21
-34 60 -45 118 -31 126 30 1113 704 1690 1154 146 114 399 319 465 377 17 14
73 63 125 109 347 302 749 706 1029 1033 536 627 990 1351 1109 1769 43 151
55 249 49 396 -12 302 -130 519 -360 666 -132 85 -279 123 -436 113 -160 -10
-273 -51 -426 -153 -271 -181 -455 -474 -619 -984 -20 -63 -39 -121 -42 -129
-3 -10 -13 -2 -31 25 -78 114 -217 271 -353 397 -311 288 -563 372 -780 262
-145 -74 -267 -264 -317 -495 -29 -134 -26 -440 6 -580 69 -311 191 -569 408
-868 72 -99 203 -265 222 -282 4 -3 58 -63 122 -135 191 -213 266 -274 339
-275 27 0 70 25 70 41 0 5 -76 96 -168 202 -406 463 -509 613 -616 899 -87
235 -122 457 -113 736 7 246 37 345 119 399 35 24 52 28 109 28 60 0 77 -5
161 -48 122 -62 288 -187 414 -312 171 -171 289 -337 395 -560 52 -109 129
-324 129 -359 0 -44 47 -21 82 38 22 40 23 50 25 286 1 135 7 290 13 345 29
254 110 532 225 763 165 333 329 514 514 569 71 20 203 20 278 -2 166 -48 319
-175 391 -326 61 -128 76 -200 76 -364 -1 -199 -30 -318 -128 -520 -67 -138
-143 -254 -276 -420 -473 -594 -1101 -1251 -1720 -1800 -471 -417 -1012 -838
-1527 -1188 -137 -93 -160 -107 -149 -88 14 21 57 376 67 552 23 385 -21 900
-127 1484 -13 77 -67 361 -119 630 -123 636 -169 927 -207 1295 -20 193 -17
827 4 956 79 473 307 654 829 655 170 0 296 -16 449 -57 292 -79 599 -262 786
-467 l56 -62 -42 -6 c-116 -16 -349 15 -509 67 -57 19 -107 32 -111 29 -4 -2
-13 -18 -20 -35 -16 -38 0 -82 41 -111 37 -26 176 -74 309 -106 144 -34 388
-43 510 -19 278 57 426 152 860 556 298 278 507 415 715 471 109 29 290 32
393 5 240 -61 475 -264 606 -523 90 -179 142 -377 167 -638 10 -108 14 -648 5
-716 -3 -19 -7 -83 -11 -144 -11 -206 -45 -485 -96 -810 -58 -365 -70 -421
-389 -1885 -167 -767 -221 -1048 -261 -1365 -6 -49 -13 -96 -15 -103 -2 -8
-20 17 -40 53 -294 555 -769 1032 -1332 1338 -108 59 -149 73 -182 62 -24 -8
-52 -57 -44 -78 3 -8 45 -48 94 -91 250 -216 557 -549 776 -841 261 -348 518
-796 679 -1182 50 -119 63 -143 80 -143 36 0 93 74 108 140 3 14 22 180 42
370 69 668 181 1349 374 2265 252 1202 263 1256 341 1670 142 755 234 1400
259 1817 24 390 -30 659 -175 878 -166 253 -413 366 -724 333z"/>
</g>
</svg>
